<?xml version="1.0" encoding="UTF-8"?>
<svg version="1.1" xmlns="http://www.w3.org/2000/svg" width="205" height="30">
<path d="M0 0 C2.72943537 -0.05416741 5.45778564 -0.09375225 8.1875 -0.125 C9.34088867 -0.15013672 9.34088867 -0.15013672 10.51757812 -0.17578125 C16.11381546 -0.22381762 20.03541845 0.19470884 24.3125 4.125 C26.47438918 7.80821861 26.93953054 10.88470095 26 15 C24.55863132 17.64334049 22.94404842 19.6671419 21 22 C22.2375 23.423125 22.2375 23.423125 23.5 24.875 C26 27.75 26 27.75 26 30 C22.57438913 30.41905531 19.40776842 30.61912129 16 30 C13.56009168 27.86038809 12.56207511 25.91587355 11 23 C10.071875 24.2375 10.071875 24.2375 9.125 25.5 C8.073125 26.7375 8.073125 26.7375 7 28 C6.34 28 5.68 28 5 28 C4.67 27.01 4.34 26.02 4 25 C3.21625 25.495 2.4325 25.99 1.625 26.5 C-1 28 -1 28 -3 28 C-3.125 25.625 -3.125 25.625 -3 23 C-2.34 22.34 -1.68 21.68 -1 21 C-1.66 20.34 -2.32 19.68 -3 19 C-0.74407124 15.43800721 1.1336696 14.48705016 5 13 C5.66 12.01 6.32 11.02 7 10 C6.4946875 9.36191406 5.989375 8.72382813 5.46875 8.06640625 C4.49421875 6.82697266 4.49421875 6.82697266 3.5 5.5625 C2.8503125 4.73878906 2.200625 3.91507812 1.53125 3.06640625 C0 1 0 1 0 0 Z M12 7 C12 7.33 12 7.66 12 8 C13.65 8 15.3 8 17 8 C17.33 8.99 17.66 9.98 18 11 C18 9.68 18 8.36 18 7 C16.02 7 14.04 7 12 7 Z M16 12 C17 14 17 14 17 14 Z " fill="#29337B" transform="translate(3,0)"/>
<path d="M0 0 C3.0625 2.5 3.0625 2.5 5 5 C5.48984375 4.18144531 5.9796875 3.36289063 6.484375 2.51953125 C9 0 9 0 12.890625 -0.48828125 C14.34465382 -0.45989656 15.79804917 -0.39523016 17.25 -0.3125 C19.8075 -0.209375 22.365 -0.10625 25 0 C25 5.94 25 11.88 25 18 C21.16375 18.1546875 21.16375 18.1546875 17.25 18.3125 C16.45110352 18.35802002 15.65220703 18.40354004 14.82910156 18.45043945 C12.890625 18.48828125 12.890625 18.48828125 9 18 C6.484375 15.48046875 6.484375 15.48046875 5 13 C4.360625 13.825 3.72125 14.65 3.0625 15.5 C-0.5473821 18.44684253 -2.37490615 18.7671936 -6.90625 18.47265625 C-9 18 -9 18 -11.5625 16.0625 C-13.50590692 11.92219831 -13.79670637 8.49510123 -13 4 C-10.18654496 -1.01528941 -5.22002742 -1.12388491 0 0 Z M-5 5 C-5.33 5.66 -5.66 6.32 -6 7 C-4.68 6.67 -3.36 6.34 -2 6 C-2.99 5.67 -3.98 5.34 -5 5 Z M15 5 C14.01 5.66 13.02 6.32 12 7 C12.33 8.65 12.66 10.3 13 12 C14.32 12 15.64 12 17 12 C17.33 10.35 17.66 8.7 18 7 C17.01 6.34 16.02 5.68 15 5 Z M-7 11 C-6.67 11.66 -6.34 12.32 -6 13 C-4.68 12.67 -3.36 12.34 -2 12 C-2 11.67 -2 11.34 -2 11 C-3.65 11 -5.3 11 -7 11 Z " fill="#29327B" transform="translate(131,9)"/>
<path d="M0 0 C3.0625 2.5 3.0625 2.5 5 5 C5.639375 4.175 6.27875 3.35 6.9375 2.5 C10.56896433 -0.46446068 12.36318636 -0.68712777 16.90625 -0.4296875 C19 0 19 0 21.5625 1.8125 C23 4 23 4 23 7 C16.375 7.125 16.375 7.125 13 6 C13 7.98 13 9.96 13 12 C13.99 11.67 14.98 11.34 16 11 C18.33299825 10.96045766 20.66708189 10.95598268 23 11 C21.92598892 13.91517292 21.22189824 15.77810176 19 18 C15.94444667 18.57028991 13.05789986 18.54304084 10 18 C6.9375 15.5 6.9375 15.5 5 13 C4.38125 13.825 3.7625 14.65 3.125 15.5 C0.55420249 18.08552987 -1.45587077 18.4399705 -5.0625 18.5625 C-8.16399739 18.37298973 -9.84565637 18.08084666 -12.625 16.625 C-14.79409895 12.48399291 -14.84859343 8.56118969 -14 4 C-10.52327714 -0.71039872 -5.48073098 -1.19921962 0 0 Z M-5 5 C-5.99 5.66 -6.98 6.32 -8 7 C-7.67 8.65 -7.34 10.3 -7 12 C-5.68 12 -4.36 12 -3 12 C-2.67 10.35 -2.34 8.7 -2 7 C-2.99 6.34 -3.98 5.68 -5 5 Z " fill="#29327A" transform="translate(44,9)"/>
<path d="M0 0 C2.43375 -0.020625 4.8675 -0.04125 7.375 -0.0625 C8.13989746 -0.071604 8.90479492 -0.08070801 9.69287109 -0.09008789 C14.77777778 -0.11111111 14.77777778 -0.11111111 17 1 C17.66 0.67 18.32 0.34 19 0 C22.43119931 -0.25416291 25.05866485 -0.44073112 28.2109375 1.03515625 C30.46318418 3.50869354 30.4147495 5.32577574 30.3515625 8.59570312 C30.31804687 9.28599609 30.28453125 9.97628906 30.25 10.6875 C30.23195312 11.38939453 30.21390625 12.09128906 30.1953125 12.81445312 C30.14826213 14.54355436 30.07651873 16.27195205 30 18 C28.02 18 26.04 18 24 18 C23.67 14.37 23.34 10.74 23 7 C21.68 6.67 20.36 6.34 19 6 C18.67 9.96 18.34 13.92 18 18 C16.02 18 14.04 18 12 18 C11.67 14.37 11.34 10.74 11 7 C9.68 6.67 8.36 6.34 7 6 C7 9.96 7 13.92 7 18 C4.69 18 2.38 18 0 18 C0 12.06 0 6.12 0 0 Z " fill="#29327B" transform="translate(158,9)"/>
<path d="M0 0 C1.4540625 0.0309375 1.4540625 0.0309375 2.9375 0.0625 C3.2675 3.0325 3.5975 6.0025 3.9375 9.0625 C4.9275 8.0725 5.9175 7.0825 6.9375 6.0625 C9.66257798 5.67171444 12.16871956 5.92633047 14.9375 6.0625 C14.31875 6.97 13.7 7.8775 13.0625 8.8125 C11.48709616 11.22194116 10.1799551 13.48804349 8.9375 16.0625 C9.370625 16.55621094 9.80375 17.04992187 10.25 17.55859375 C11.0853125 18.51958984 11.0853125 18.51958984 11.9375 19.5 C12.494375 20.13808594 13.05125 20.77617187 13.625 21.43359375 C14.9375 23.0625 14.9375 23.0625 14.9375 24.0625 C9.56444301 24.41483161 9.56444301 24.41483161 6.9375 24.0625 C4.9375 22.0625 4.9375 22.0625 3.9375 20.0625 C3.6075 21.3825 3.2775 22.7025 2.9375 24.0625 C0.6275 24.0625 -1.6825 24.0625 -4.0625 24.0625 C-4.09137236 20.25001574 -4.10925492 16.4375593 -4.125 12.625 C-4.13337891 11.53638672 -4.14175781 10.44777344 -4.15039062 9.32617188 C-4.15361328 8.29169922 -4.15683594 7.25722656 -4.16015625 6.19140625 C-4.16539307 5.23306885 -4.17062988 4.27473145 -4.17602539 3.28735352 C-3.99820174 -0.19760753 -3.56383452 0.07273132 0 0 Z " fill="#29337A" transform="translate(72.0625,2.9375)"/>
<path d="M0 0 C2.75958839 0.08429611 4.54312294 0.27974918 7.125 1.3125 C9.43203401 4.38854535 9.82270972 7.57013741 9.625 11.3125 C7.50140449 16.87429775 7.50140449 16.87429775 4.625 18.3125 C1.56688704 18.72575851 -1.32246199 18.79047748 -4.375 18.3125 C-7.31215962 15.81591433 -8.17139385 13.96403968 -9.3125 10.3125 C-9.38817669 6.68001901 -8.53029726 5.18622969 -6.375 2.3125 C-3.97049822 -0.09200178 -3.29266058 0.01640861 0 0 Z M-1.375 5.3125 C-1.705 5.9725 -2.035 6.6325 -2.375 7.3125 C-0.725 7.3125 0.925 7.3125 2.625 7.3125 C2.295 6.6525 1.965 5.9925 1.625 5.3125 C0.635 5.3125 -0.355 5.3125 -1.375 5.3125 Z M-2.375 11.3125 C-2.045 11.9725 -1.715 12.6325 -1.375 13.3125 C-0.055 12.9825 1.265 12.6525 2.625 12.3125 C2.625 11.9825 2.625 11.6525 2.625 11.3125 C0.975 11.3125 -0.675 11.3125 -2.375 11.3125 Z " fill="#29327B" transform="translate(95.375,8.6875)"/>
<path d="M0 0 C0.7734375 -0.00773438 1.546875 -0.01546875 2.34375 -0.0234375 C4.9928578 0.46607155 5.9253208 1.21367561 7.5 3.375 C7.125 6 7.125 6 6.5 8.375 C6.83 8.705 7.16 9.035 7.5 9.375 C7.6875 12.8125 7.6875 12.8125 7.5 16.375 C4.98987037 18.88512963 4.03194763 18.67221609 0.5625 18.6875 C-0.75041016 18.71263672 -0.75041016 18.71263672 -2.08984375 18.73828125 C-4.5 18.375 -4.5 18.375 -6.31640625 17.10546875 C-7.5 15.375 -7.5 15.375 -7.5 11.375 C-6.84 11.045 -6.18 10.715 -5.5 10.375 C-6.16 9.715 -6.82 9.055 -7.5 8.375 C-7.85954817 5.57052426 -7.99804138 4.03329444 -6.26171875 1.73828125 C-4.03910346 0.0183417 -2.78521951 -0.0278522 0 0 Z M-1.5 11.375 C-1.5 12.035 -1.5 12.695 -1.5 13.375 C-0.18 13.045 1.14 12.715 2.5 12.375 C1.18 12.045 -0.14 11.715 -1.5 11.375 Z " fill="#29337B" transform="translate(197.5,8.625)"/>
<path d="M0 0 C1.98 0 3.96 0 6 0 C6 1.32 6 2.64 6 4 C7.32 4 8.64 4 10 4 C10 5.65 10 7.3 10 9 C8.68 9 7.36 9 6 9 C6.33 11.31 6.66 13.62 7 16 C7.99 16.33 8.98 16.66 10 17 C10 18.65 10 20.3 10 22 C3.64631422 22.47952345 3.64631422 22.47952345 1.0625 20.5625 C-0.52203208 16.74098146 -0.23546395 13.08137509 0 9 C-0.66 9 -1.32 9 -2 9 C-2 7.35 -2 5.7 -2 4 C-1.34 4 -0.68 4 0 4 C0 2.68 0 1.36 0 0 Z " fill="#29337B" transform="translate(107,5)"/>
</svg>
