<svg xmlns="http://www.w3.org/2000/svg" width="320" height="320" viewBox="0 0 320 320">
  <rect width="320" height="320" fill="#fbf8ff"/>
  <g fill="none" stroke="#eadff5" stroke-width="2" opacity=".8">
    <path d="M16 52c42-30 86 8 55 38-27 26 1 68 40 42 40-27 89 17 60 55-28 37 18 82 62 51"/>
    <path d="M244 4c-18 39 34 53 42 88 9 39-42 57-72 33-32-25-78 13-53 50 26 38-22 76-59 56-43-24-76 30-44 66"/>
    <path d="M3 211c40 17 79-17 65-49-16-38 36-67 69-35"/>
    <path d="M290 170c-31 18-69 11-80-21-11-33 15-71 50-65"/>
  </g>
</svg>
